<svg height="512" width="512" xmlns="http://www.w3.org/2000/svg"><path d="m74.0548096 143.1734924-74.0548096 182.650116h53.6068382l13.263546-31.7772522h76.2654037l14.6451721 31.7772522h54.4358063l-82.3445282-182.650116zm27.9087143 51.6725769 25.9744492 62.7255249h-49.1856538zm55.7483444-51.6725769 100.7891693 225.6530151 104.105011-225.6530151h-55.0575256l-49.0474854 110.5295716-46.4224243-110.5295715h-54.366745zm302.3674469 0h-71.5679016l-80.9628906 182.650116h54.9884644l29.2212524-65.5578613h12.5727234l17.339325 65.5578613h56.3700867l-25.421814-72.1205444c76.0150451-10.8589936 79.6412047-107.3701477 7.4607543-110.5295716zm-30.6719666 78.7523194h-24.0056152l19.5844421-43.6591797h19.6190186c25.1733704 3.8395691 20.1525574 42.0535278-15.1978455 43.6591797z"/></svg>